<?xml version="1.0" encoding="utf-8"?>
<!-- Generator: Adobe Illustrator 22.0.0, SVG Export Plug-In . SVG Version: 6.00 Build 0)  -->
<svg version="1.1" id="Capa_1" xmlns="http://www.w3.org/2000/svg" xmlns:xlink="http://www.w3.org/1999/xlink" x="0px" y="0px"
	 viewBox="0 0 96 91" style="enable-background:new 0 0 96 91;" xml:space="preserve">
<style type="text/css">
	.st0{clip-path:url(#SVGID_2_);}
	.st1{fill:url(#SVGID_3_);}
	.st2{fill:url(#SVGID_4_);}
	.st3{fill:none;stroke:url(#SVGID_5_);stroke-width:40;}
</style>
<g>
	<defs>
		<path id="SVGID_1_" d="M0,0h7.8c25.1,0,45.5,20.4,45.5,45.5S32.9,91,7.8,91H0V71h7.8c14.1,0,25.5-11.4,25.5-25.5S21.8,20,7.8,20H0
			V0z M36.3,0h32C83.6,0,96,12.4,96,27.7c0,6.5-2.3,12.8-6.4,17.8c9.8,11.8,8.2,29.3-3.6,39.1C81,88.7,74.7,91,68.3,91h-32
			c7.9-4.9,14.3-11.8,18.7-20h13.3c4.3,0,7.8-3.5,7.8-7.8s-3.5-7.8-7.8-7.8h-7.8c1.3-6.6,1.3-13.4,0-20h7.8c4.3,0,7.8-3.5,7.8-7.8
			S72.5,20,68.3,20H55C50.6,11.8,44.1,4.9,36.3,0z"/>
	</defs>
	<clipPath id="SVGID_2_">
		<use xlink:href="#SVGID_1_"  style="overflow:visible;"/>
	</clipPath>
	<g class="st0">
		
			<linearGradient id="SVGID_3_" gradientUnits="userSpaceOnUse" x1="-52" y1="-31" x2="-9" y2="-74" gradientTransform="matrix(1 0 0 -1 0 92)">
			<stop  offset="0" style="stop-color:#F9A03C"/>
			<stop  offset="1" style="stop-color:#F7974E"/>
		</linearGradient>
		<path class="st1" d="M-127-102v300h300L-127-102z"/>
		
			<linearGradient id="SVGID_4_" gradientUnits="userSpaceOnUse" x1="107" y1="164" x2="170" y2="101" gradientTransform="matrix(1 0 0 -1 0 92)">
			<stop  offset="0" style="stop-color:#B84E51"/>
			<stop  offset="1" style="stop-color:#F68E48"/>
		</linearGradient>
		<path class="st2" d="M-73-102h300v300L-73-102z"/>
		
			<linearGradient id="SVGID_5_" gradientUnits="userSpaceOnUse" x1="1.2824" y1="93.2907" x2="86.2824" y2="7.2907" gradientTransform="matrix(1 0 0 -1 0 92)">
			<stop  offset="0" style="stop-color:#F26D58"/>
			<stop  offset="1" style="stop-color:#F9A03C"/>
		</linearGradient>
		<path class="st3" d="M-100-102l300,300"/>
	</g>
</g>
</svg>
