<?xml version="1.0" encoding="utf-8"?>
<!-- Generator: Adobe Illustrator 22.0.0, SVG Export Plug-In . SVG Version: 6.00 Build 0)  -->
<svg version="1.1" id="Capa_1" xmlns="http://www.w3.org/2000/svg" xmlns:xlink="http://www.w3.org/1999/xlink" x="0px" y="0px"
	 viewBox="0 0 360 318" style="enable-background:new 0 0 360 318;" xml:space="preserve">
<style type="text/css">
	.st0{fill:#C4D423;}
	.st1{fill:#FBE305;}
	.st2{fill:#FEFE9A;}
	.st3{fill:#185418;}
</style>
<path class="st0" d="M291,246.1c-0.3-0.7-0.4-0.9-0.4-1.1c-0.9-9.6-0.9-9.6,8.6-9.6c7.2,0,10-2.2,11.5-9.6c0.9-4.5,1.7-9.1,1.6-13.8
	c-0.2-13.3,0-26.6,0-40c0-15.8,4.3-29.8,17-40.6c-7.1-6.4-12.4-14-14.7-23.2c-1.1-4.5-2.4-8.9-2.4-13.6c0-15.3,0-30.6-0.1-46
	c0-5.3-0.8-10.5-2.7-15.6c-1.6-4.4-4.6-6.2-9.1-6.2c-3.1,0-6.3,0-9.3,0c-1.4-3.5-0.5-6.7-0.8-10.5c6.7-0.1,13.2-1,19.5,0.4
	c7.4,1.6,12.2,9.4,13.5,18.5c2.9,20.1,0.6,40.2,1.5,60.3c0.3,7.5,1.7,14.8,4.8,21.7c2.3,5.1,5.9,8.4,11.8,8.8
	c1.2,3.2,0.2,6.5,0.7,10.1c-10.6,1.6-13.4,9.6-15.6,18.3s-1.7,17.5-1.8,26.3c-0.1,11.7,0.2,23.3-0.1,35c-0.2,7.3-1.3,14.5-4.7,21.1
	c-2.7,5.2-7.3,8.4-13,9C301.8,246.6,296.4,246.1,291,246.1z"/>
<path class="st0" d="M68.4,16.4c0.4,3.7,0.6,6.8-0.1,9.9c-2.3,1.1-4.5,0.6-6.6,0.6c-9,0.1-12.5,3.5-13.6,12.6
	C46,59.1,48,78.8,46.9,98.4c-0.8,13.2-6.6,24.1-16.6,33.1c6.1,5.9,11.6,12.6,14.2,21c1.3,4.1,2.5,8.2,2.5,12.6c0,14.5,0,29,0.2,43.5
	c0.1,6.8,0.4,13.5,2.6,20.1c1.5,4.5,4,7.1,9,6.6c0.2,0,0.3,0,0.5,0c9.9,0.1,9.9,0.1,9.1,11c-6.6-0.5-13.4,0.8-20-0.9
	c-7.1-1.9-11.7-10.2-12.7-19.2c-2.2-20.3-0.5-40.6-1.5-60.9c-0.3-6.7-1.8-13.1-4.4-19.3c-2.4-5.5-6.3-8.8-12.4-9.5
	c-0.7-3.4-0.4-6.6-0.2-10.1c8-0.8,11.6-6.1,14.1-12.9c3.1-8.5,3.1-17.3,3.2-26.1c0.1-12.3-0.2-24.7,0.2-37
	c0.3-8.4,0.5-16.9,4.9-24.6c3.1-5.6,8-8.5,14-9.2C58.3,16,63.2,16.4,68.4,16.4z"/>
<path class="st1" d="M138.7,128.9c-16-0.2-32.6-1.9-49.2-1.4c-4.9,0.1-6.6-3-6.1-9.6c1-13.5,5.4-25.8,12.6-37.2
	c2.5-3.9,5.2-7.7,7.8-11.6c2.4-3.7,5.2-3.6,8.3-0.8c13.5,11.7,26,24.3,37.9,37.5c4.8,5.3,9.6,10.6,14.3,16c3.1,3.6,2.3,5.4-2.4,6.1
	C154.3,129.1,146.8,128.6,138.7,128.9z"/>
<path class="st1" d="M118.1,135.2c14.1,0.5,28.3-1.1,42.3,1.6c1.4,0.3,3-0.3,3.9,1.5c0.9,2-0.3,3.2-1.4,4.4
	c-10.1,11.3-21.1,21.7-32,32.2c-6.1,5.9-12.3,11.7-18.4,17.6c-4.6,4.4-6.3,4.4-10.7-0.2c-10.2-10.6-16-23.4-19.2-37.5
	c-0.9-4.2-1.8-8.4-2.8-12.5c-1-4,1.9-6.9,7.3-7C97.5,135.1,107.8,135.2,118.1,135.2z"/>
<path class="st1" d="M184.9,68.4c0-8.6-0.1-17.3,0-25.9c0.1-5.4,1.9-7.2,7.3-7.2c14,0.2,26.9,4.5,38.9,11.7c4.3,2.5,8.4,5.3,12.5,8
	c3.2,2.1,4,4.5,1.2,7.8c-16.4,19.3-34.6,36.8-53.3,53.8c-1.3,1.2-2.8,1.9-4.5,1.2c-1.8-0.8-1.2-2.5-1.3-3.9
	C184.8,98.7,183.9,83.6,184.9,68.4z"/>
<path class="st1" d="M177.9,187.4c0,11.2,0,22.3,0,33.5c0,5.7-1.4,6.9-7.1,7.1c-17.2,0.6-31.9-6.3-45.8-15.4
	c-12.5-8.3-11.1-7.5-2.1-17.7c14.8-16.7,30.8-32.2,47.6-47c1.3-1.1,2.3-3.1,4.6-2.1c2.1,0.9,2.1,2.8,2.2,4.6
	C178.5,162.7,177.8,175,177.9,187.4z"/>
<path class="st1" d="M184.4,183.1c-0.6-11.6,0.5-22.6,1.1-33.6c0.1-1.8,0.4-3.4,2.1-4.2c1.7-0.8,2.8,0.7,3.8,1.6
	c13.7,12,26.3,25,39.2,37.8c4,4,8.1,7.9,12.2,11.8c3.5,3.4,3.6,6.3,0.2,9.9c-9.2,9.5-20.4,15.7-33.1,19.3
	c-5.4,1.5-10.9,2.5-16.4,3.7c-5,1.1-7.3-0.4-7.4-5.6C185.5,210,183.3,196.3,184.4,183.1z"/>
<path class="st1" d="M177.8,69.3c0.6,14.5,0,28.9-1.4,43.4c-0.2,1.6,0.2,3.3-1.8,4.3c-2.3,1.1-3.4-0.5-4.7-1.8
	c-17.5-16.6-34-34.2-50.6-51.7c-3.7-3.9-1.2-6.7,1.5-9.3c7.5-7.2,16.4-12.3,26.2-15.9c8.1-3,16.6-4.1,25-6c4.5-1,5.7,3.3,5.8,6.9
	C177.9,49.4,177.8,59.4,177.8,69.3z"/>
<path class="st2" d="M246.6,128.9c-15.8,0.5-31.6-0.9-47.3-1.9c-1.7-0.1-3.4-0.2-4.1-2.1c-0.5-1.6,0.2-2.9,1.3-4
	c12.1-11.9,23.6-24.4,36.4-35.6c5-4.4,9.5-9.3,14.3-14c4.4-4.3,6.6-4.4,10.7,0.2c9.3,10.6,15.9,22.6,18.4,36.8
	c0.8,4.7,2.4,9.2,2.8,14c0.3,3.4-1.2,5.1-4.7,5.8C265.2,129.8,255.9,128.2,246.6,128.9z"/>
<path class="st2" d="M235.6,134.8c11.5,0,23,0,34.5,0c5.8,0,6.9,1.2,7,7.1c0.2,18-7,33.4-16.9,47.8c-0.8,1.2-1.6,2.5-2.5,3.7
	c-2,2.8-4.4,3.5-7.2,1.3c-15.3-12.7-29.3-26.5-42.7-41.2c-3.5-3.8-7.1-7.5-10.7-11.1c-1.7-1.7-2.7-3.5-1.7-5.8
	c0.9-2.2,3-1.7,4.8-1.7c11.8,0,23.6,0,35.5,0C235.6,134.9,235.6,134.8,235.6,134.8z"/>
<path class="st0" d="M99.4,276.2c4-4.4,7.8-7.7,13.7-6.8c5.2,0.8,8.7,4.4,8.8,9.7c0.1,6.3,0.1,12.7,0.1,19c0,6.9-0.4,7.2-8,5.5
	c0-6.5-0.2-13.1,0.1-19.7c0.2-4.2-1.4-7.1-5.6-7.4c-4-0.2-7.1,2-7.4,6.4c-0.3,5-0.4,10-0.4,15c-0.1,7.1-0.3,7.3-8.5,5.8
	c0-6.5-0.1-13.1,0.1-19.7c0.1-4-1-7.5-5-7.9c-3.9-0.3-6.8,2.3-7.7,6.4c-1.3,5.6-0.5,11.3-0.6,16.9c0,3.1-0.3,5-4.2,5
	c-3.6,0-4.5-1.4-4.4-4.8c0.2-9.8,0.1-19.6,0.1-29.3c2.7-1.2,4.9-0.9,7.1-0.5c1.3,1.5,0.4,3.4,1.1,5.3c3.2-2.7,5.8-6.2,10.6-6.1
	C94,269.3,97.3,271.3,99.4,276.2z"/>
<path class="st3" d="M297.1,304.4c-0.2-1.8-0.4-3.3-0.6-5.5c-4.3,5.5-9,8.2-15.4,5.1c-5.2-2.6-6.7-7.7-7.7-12.6
	c-0.9-4.7-0.4-9.5,1.5-14.1c3.5-8.6,10.7-10.9,20.3-5.7c1.1-3.1,0.6-6.2,0.5-9.3c-0.1-3.2,0.8-4.5,4.2-4.5c3.2,0,3.9,1.3,3.9,4.2
	c-0.1,13.8,0,27.6,0,41.3C301.5,305,299.4,304,297.1,304.4z M296,286.7c-0.3-1.9-0.4-4.1-0.8-6.2c-0.5-2.7-2.2-4.3-5-4.7
	c-3.1-0.4-5.7,0.4-7,3.4c-2.5,5.2-2.4,10.6-0.2,15.9c1.4,3.3,5.4,4.3,8.6,2.7C296.3,295.4,295.3,290.9,296,286.7z"/>
<path class="st3" d="M342.1,288.4c-4.1,0-7.9,0-11.7,0c-3.6,0-7.3,0-11.2,0c-0.5,4.9,1.1,8.5,5.3,10.2c5.1,2.1,8.4-1,10.8-5.4
	c2.2,0.6,4.3,1.1,6.3,1.6c-3.3,8.4-10.9,12.3-19.2,9.9c-8.6-2.6-13.4-11.7-11.5-21.5c2-9.9,9.4-15,19.7-13.6
	C337.9,270.5,342.5,277.8,342.1,288.4z M333.6,283.1c0.5-4.2-2.3-8-6.1-8.6c-4-0.6-7.2,2.8-8.1,8.6
	C324.1,283.1,328.9,283.1,333.6,283.1z"/>
<path class="st3" d="M268.7,287.3c-0.1,10.3-7.3,18.2-16.7,18.1c-10.2-0.2-15.4-7.9-15.8-18.2c-0.3-9.7,6.7-18,16.5-18
	C261.4,269.3,268.6,277.2,268.7,287.3z M244.9,288c0.1,0.9,0,2.8,0.4,4.5c0.9,3.5,3.4,6,6.8,6.3c3,0.2,5.8-1.6,6.8-4.7
	c0.7-2.2,1.3-4.6,1.1-6.8c-0.5-7.4-2.1-12-8.3-11.4C247.1,276.3,245,279.7,244.9,288z"/>
<path class="st0" d="M63.3,288.5c-7.3,0-14.7,0-22,0c-1.7,5.2,0.3,8.5,4.4,10.1c5,2,8.1-1.3,10.9-5.4c1.9,0.6,3.9,1.1,5.8,1.7
	c-2.1,6.8-8.1,10.9-15.3,10.6c-6.8-0.3-13.5-5.3-14.4-11.6c-1-6.9-1.6-14,3.9-19.7c4.4-4.6,12.7-6.2,18.3-3.5
	C61,273.6,64.6,281,63.3,288.5z M55.4,282.9c-0.2-5.1-3-7.6-7-8.3c-3.2-0.6-5.6,1.8-7.2,4.3c-1.3,1.9-1.8,4.4,1.7,4.5
	C47,283.5,51.1,284,55.4,282.9z"/>
<path class="st0" d="M160.9,287.2c1.9,11.1-10.7,22.5-22.3,16.7c-8.2-4.1-9.7-11.5-9.2-19.8c0.4-6,4.5-11.9,10.2-14.1
	c5.9-2.2,13.1-0.5,17.3,4.2C159.8,277.4,160.9,281,160.9,287.2z M153,287.1c0-6.5-2.5-10.7-6.7-11.2c-5.3-0.7-8.9,3.8-9,11.1
	c0,7,3.2,12,7.8,12C149.8,299,153,294.1,153,287.1z"/>
<path class="st0" d="M175.5,276.6c3.5-5.2,7.3-8.6,13.5-7c4.6,1.2,7.6,5,7.7,10.3c0.1,6.2,0,12.3,0,18.5c0,6.6-0.2,6.7-7.9,5.3
	c0-6.6-0.1-13.4,0-20.2c0.1-4.1-1.4-7.4-5.4-7.5c-3.9,0-6.7,3.1-6.9,7.2c-0.3,5.6-0.2,11.3-0.1,17c0.1,2.8-0.6,4.3-3.8,4.2
	c-3,0-4.6-0.6-4.5-4.1c0.2-10,0.1-19.9,0.1-29.6c2.2-1.7,4.2-0.8,5.9-0.9C175.8,271.9,174.7,274,175.5,276.6z"/>
<path class="st3" d="M232.6,293c-2.4,11.5-13,14.4-19.9,11.1c-3.5-1.7-5.6-4.4-7.2-7.8c-3.6-8-1.5-19,4.8-24.1
	c7.3-5.9,17.9-3.1,21.3,5.6c0.6,1.4,1.7,3-0.3,3.8c-1.9,0.7-4.7,1.7-5.7-1c-1.6-4-4.3-5.7-8.1-4.4c-4,1.3-5,5.1-5.2,8.8
	c-0.1,3.4-0.7,7,1.5,10.2c2.6,3.8,8.9,4.1,10.6-0.1C226.6,290.2,229.2,291.6,232.6,293z"/>
<path class="st0" d="M17.4,258.5c2.5-0.8,4.7-0.8,7.5,0.1c0,7.5,0,15.1,0,22.7c0,5.6,0,11.3,0,16.9c0,6.7-0.1,6.8-7.5,5.7
	C17.4,288.9,17.4,273.7,17.4,258.5z"/>
</svg>
