<?xml version="1.0" encoding="utf-8"?>
<!-- Generator: Adobe Illustrator 22.0.0, SVG Export Plug-In . SVG Version: 6.00 Build 0)  -->
<svg version="1.1" xmlns="http://www.w3.org/2000/svg" xmlns:xlink="http://www.w3.org/1999/xlink" x="0px" y="0px"
	 viewBox="0 0 553.3 267.3" style="enable-background:new 0 0 553.3 267.3;" xml:space="preserve">
<style type="text/css">
	.st0{display:none;}
	.st1{display:inline;fill:#222222;}
	.st2{fill:#A0A0A0;}
	.st3{fill:#82C244;}
	.st4{fill:#97CA61;}
	.st5{fill:#669C41;}
	.st6{fill:#4C7235;}
	.st7{fill:#C6E0A9;}
</style>
<g id="Fondo" class="st0">
	<rect x="-131.7" y="-93.7" class="st1" width="854.7" height="514"/>
</g>
<g id="LOGO">
	<path class="st2" d="M428.5,154.8c0,2.1,0,3.8,0,5.5c0,0.9,0.2,1.2,1.2,1.2c5.1-0.1,10.2-0.1,15.4,0c1,0,1.2-0.3,1.2-1.2
		c0-15.9,0-31.8,0-47.8c0-0.9-0.3-1.1-1.1-1.1c-5.1,0-10.2,0.1-15.4,0c-1.1,0-1.2,0.3-1.2,1.3c0,8.2,0,16.4,0,24.6
		c0,1.1-0.1,2.2-0.2,3.3c-0.4,3.6-3.1,6.2-6.7,6.3c-3.6,0.2-6.2-1.9-7-5.7c-0.3-1.2-0.3-2.5-0.3-3.7c0-8.3,0-16.6,0-24.8
		c0-1-0.2-1.4-1.3-1.3c-5,0.1-10.1,0.1-15.1,0c-1,0-1.3,0.2-1.3,1.3c0,10.3,0,20.6,0,30.8c0,1.5,0,3,0.3,4.5
		c0.9,5.9,3.4,10.7,9.1,13c6,2.4,12,2.4,17.6-1.5C425.4,158.3,426.9,156.8,428.5,154.8z"/>
	<path class="st2" d="M485.6,39.7c0-2.1-0.1-3.9,0-5.7c0-0.9-0.3-1.1-1.2-1.1c-5.2,0-10.3,0-15.5,0c-0.8,0-1.1,0.2-1.1,1
		c0,16,0,32,0,48c0,1,0.3,1.1,1.2,1.1c5.1,0,10.2-0.1,15.2,0c1.1,0,1.3-0.3,1.3-1.3c0-8.6,0-17.2,0-25.8c0-1.3,0.1-2.6,0.6-3.9
		c1-2.8,3.6-4.6,6.7-4.5c3.1,0,5.5,1.8,6.4,4.8c0.4,1.4,0.5,2.7,0.5,4.1c0,8.5,0,17,0,25.4c0,0.9,0.2,1.2,1.1,1.1
		c5.2,0,10.3,0,15.5,0c0.8,0,1.1-0.2,1.1-1c0-10.8,0-21.7,0-32.5c0-4.9-1.2-9.4-4.8-13.1c-6.1-6.3-17.7-6.2-24.2,0.2
		C487.5,37.6,486.7,38.6,485.6,39.7z"/>
	<path class="st2" d="M308.5,162.7c2.2,0.1,4.3-0.2,6.4-0.5c8.1-1.4,13.1-6.3,14.2-13.8c0.9-6.2-1.3-11.1-6.7-14.3
		c-1.6-1-3.3-1.7-5.1-2.3c-3.4-1.1-6.9-2.2-10.4-3.4c-0.8-0.3-1.6-0.6-2.3-1c-0.8-0.5-1.4-1.2-1.3-2.1c0.1-1,0.7-1.6,1.6-1.9
		c1-0.4,2.1-0.5,3.2-0.4c4.7,0.4,9,2,13.1,4.2c0.7,0.4,1,0.3,1.4-0.4c1.7-3.1,3.3-6.3,5.1-9.4c0.4-0.8,0.3-1.1-0.5-1.5
		c-5.4-3.1-11.3-4.8-17.5-5.2c-4.9-0.3-9.7,0.3-14.1,2.6c-5.3,2.9-8,7.4-8.2,13.4c-0.2,6.2,2.6,10.4,8,13.2c2.7,1.4,5.6,2.3,8.5,3.1
		c2.6,0.7,5.2,1.4,7.6,2.4c1.1,0.5,1.8,1.2,1.6,2.5c-0.1,1.3-1,1.9-2.1,2.2c-1.2,0.3-2.4,0.3-3.6,0.2c-5.4-0.4-10.4-2.2-15-5.2
		c-0.8-0.5-1.1-0.4-1.5,0.4c-1.7,2.9-3.4,5.8-5.3,8.6c-0.7,1.1-0.4,1.5,0.5,2.1C293,160.6,300.5,162.6,308.5,162.7z"/>
	<path class="st2" d="M458.6,138c0.1,3.3-0.2,7.5,0.2,11.7c0.6,5.2,2.7,9.4,7.9,11.4c6.9,2.6,13.8,2.1,20.5-0.9
		c0.5-0.2,0.7-0.6,0.7-1.1c0-4,0-8.1,0-12.1c0-0.7-0.2-0.9-0.9-0.6c-1.9,0.8-3.9,1.4-6,1.3c-3.1-0.1-4.6-1.5-4.6-4.6
		c0-5.4,0-10.8,0-16.2c0-0.8,0.2-1.1,1.1-1.1c3.2,0,6.4,0,9.6,0c0.8,0,1-0.2,1-1c0-4.1,0-8.2,0-12.2c0-0.8-0.2-1-1-1
		c-3.2,0.1-6.4,0-9.6,0c-0.9,0-1.1-0.3-1.1-1.1c0.1-3.4,0-6.9,0-10.3c0-0.9-0.2-1.3-1.2-1.3c-5.1,0.1-10.2,0.1-15.4,0
		c-0.9,0-1.2,0.2-1.2,1.2c0.1,3.5,0,7,0,10.4c0,0.9-0.3,1.1-1.1,1.1c-1.3-0.1-2.6,0-4,0c-0.7,0-0.9,0.2-0.9,0.9c0,4.2,0,8.3,0,12.5
		c0,0.7,0.2,0.9,0.9,0.9c0.9,0,1.8,0,2.8,0c2.3,0,2.3,0,2.3,2.2C458.6,131,458.6,134.1,458.6,138z"/>
	<path class="st2" d="M313.8,189c-8.3,0.1-15.5,2.9-20.9,9.3c-8.6,10.1-8,25.9,1.4,35.3c5.4,5.4,12.1,7.8,19.7,7.7
		c8.7-0.1,15.6-3.7,20.8-10.7c0.4-0.6,0.5-0.8-0.2-1.3c-3.5-2.4-6.9-4.9-10.3-7.5c-0.7-0.5-1-0.4-1.5,0.2c-1,1.2-2.3,2.2-3.7,3.1
		c-3.3,2.1-8.1,1.8-11.1-0.7c-4.7-3.8-5.4-11.9-1.6-16.8c2.4-3,5.5-4.1,9.2-3.5c2.9,0.4,5,2.2,6.8,4.4c0.5,0.7,0.9,0.6,1.5,0.2
		c3.3-2.5,6.7-5.1,10.1-7.5c0.9-0.6,0.9-1.1,0.3-1.9C329.3,192.2,322.4,188.9,313.8,189z"/>
	<path class="st3" d="M107.2,260.5c-2.2-1.3-3.8-3.1-5.2-5.2c-3.2-5.1-6.6-10.2-9.8-15.3c-0.5-0.7-1-1.2-1.9-1.6
		c-10.8-4.4-20.7-10.3-29.7-17.8c-19.2-16-32-36.1-38.2-60.4c-1.9-7.4-3-15-3.2-22.6c-0.1-4.7-1-9.1-3-13.3c-1.4-2.8-3.3-5.3-5-7.9
		c-1.2-1.8-2.4-3.6-3.6-5.4c-0.9-1.4-1.4-2.9-1.7-4.4c-0.4-2,0.8-4,2.6-5.1c6.5-4,13.1-7.7,18.4-13.2C28.6,86.6,30,85,31,83
		c10.7-21.3,26.6-37.7,47.5-49.2c12.2-6.7,25.2-11,39-13c4.9-0.7,9.8-1,14.7-1.2c4.6-0.2,9.1-1.4,13.1-3.9c3.9-2.4,7.7-5,11.6-7.5
		c1.4-0.9,3-1.4,4.6-1.7c2.1-0.3,3.9,0.8,5.2,2.9c3.1,5,6.2,9.9,9.7,14.6c3.1,4.1,7.4,6.6,11.9,9.1c31.3,17,50.9,42.9,58.8,77.7
		c1.7,7.4,2.2,14.8,2.4,22.4c0.1,4.7,1.6,9.1,4.2,13.1c2.3,3.5,4.6,7,6.9,10.5c0.9,1.3,1.4,2.8,1.7,4.3c0.5,2.4-0.7,4.2-2.9,5.6
		c-4.9,2.9-9.8,5.9-14.4,9.3c-3.8,2.8-6.6,6.4-8.8,10.6c-8.7,16.3-20.8,29.7-36.1,40.2c-14.1,9.7-29.6,15.9-46.5,18.7
		c-6.8,1.1-13.7,1.7-20.6,1.5c-0.7,0-1.4,0.1-2,0.6c-5.5,3.6-11,7.1-16.5,10.7c-1.4,0.9-2.9,1.6-4.5,2.2
		C109,260.5,108.1,260.5,107.2,260.5z M134.5,228.4c3.9,0,7.8-0.3,11.7-0.8c2-0.3,4-0.5,6-0.9c27.9-5.6,49.4-20.4,64.5-44.6
		c4.7-7.5,10.2-14.1,17.8-18.8c1.6-1,3.1-2.1,4.3-3.6c0.7-0.9,1-1.9,0.8-3c-0.3-1.7-0.8-3.3-1.8-4.8c-4.3-6.1-6.5-12.9-7.4-20.3
		c-0.5-4.8-0.8-9.6-1.7-14.4c-3.6-19.6-12.5-36.5-26.5-50.6c-6.5-6.5-13.8-12-21.9-16.4c-6.5-3.5-11.8-8.3-16-14.4
		c-1.1-1.6-2.2-3.3-3.5-4.8c-1.7-1.9-3.7-2.7-6.2-1.7c-1.2,0.5-2.3,0.9-3.3,1.6c-1.4,0.9-2.8,2-4.3,2.7c-5.8,2.7-12,4.4-18.4,4.9
		c-5.7,0.5-11.3,1.1-16.8,2.4c-17.5,4.2-32.7,12.5-45.6,25C59.6,72.5,54,79.8,49.7,88c-3.4,6.4-8.4,11.4-14.3,15.5
		c-1.9,1.3-3.9,2.4-5.5,4.2c-1.2,1.3-1.6,2.7-1.1,4.4c0.4,1.5,1,2.9,1.9,4.2c0.9,1.4,2,2.7,2.7,4.1c2.1,4.6,3.7,9.3,4.4,14.4
		c0.7,4.6,0.9,9.3,1.7,13.9c3.7,20.7,13,38.4,28.2,52.9C86.3,219.4,108.8,227.9,134.5,228.4z"/>
	<path class="st2" d="M545,161.7c-0.9-0.2-1.8-0.1-2.7-0.1c-4.6,0-9.2,0-13.8,0c-0.9,0-1.2-0.2-1.2-1.2c0-8.4,0-16.9,0-25.3
		c0-1.1,0-2.1-0.2-3.2c-0.7-3.6-3.1-5.7-6.6-5.7c-3.6,0-6.4,2.2-7.1,5.7c-0.2,0.9-0.2,1.7-0.2,2.6c0,8.6,0,17.3,0,25.9
		c0,0.9-0.2,1.2-1.2,1.2c-5.2-0.1-10.3,0-15.5,0c-0.9,0-1.2-0.2-1.2-1.1c0-21.8,0-43.6,0-65.4c0-0.8,0.2-1.1,1.1-1.1
		c5.2,0,10.4,0,15.6,0c0.9,0,1.1,0.2,1.1,1.1c0,7.2,0,14.4,0,21.6c0,0.4,0,0.8,0,1.4c1.5-1.6,2.8-3,4.3-4.2
		c10.7-8.3,25.5-2.4,27.3,11c0,0.3-0.1,0.6,0.2,0.7C545,137.7,545,149.7,545,161.7z"/>
	<path class="st2" d="M437.5,195.8c0-7.4,0-14.7,0-22c0-1,0.2-1.3,1.2-1.3c5.1,0.1,10.2,0,15.4,0c0.9,0,1.2,0.2,1.2,1.1
		c0,21.8,0,43.6,0,65.4c0,0.9-0.3,1.1-1.1,1.1c-5.2,0-10.5,0-15.7,0c-0.7,0-1-0.2-1-0.9c0.1-1.8,0-3.5,0-5.4
		c-0.9,0.9-1.7,1.7-2.5,2.5c-6,5.6-12.9,6.2-20.3,3.5c-6.6-2.5-10.7-7.5-12.8-14c-3-9.6-2.5-19.1,3.3-27.7
		c5.3-7.8,14.3-10.7,23.1-8.2c3.4,0.9,6,3.1,8.4,5.5c0.2,0.2,0.3,0.3,0.5,0.5C437.2,195.8,437.3,195.8,437.5,195.8z M437.7,215
		c0-1-0.1-1.9-0.3-2.9c-0.9-4.2-4.1-7.6-8-8.3c-4.1-0.7-8,1-10.2,4.6c-2.6,4.2-2.3,10,0.6,14c4,5.3,11.7,5.3,15.6-0.1
		C437.1,220.2,437.8,217.7,437.7,215z"/>
	<path class="st2" d="M367.2,39.5c1.4-1.6,2.7-3,4.2-4.1c6.2-4.6,15-4.8,22-0.3c5.1,3.3,8.3,7.9,9.8,13.7c2.1,7.6,1.9,15.2-1.5,22.5
		c-3.9,8.3-10.5,12.9-19.9,12.9c-5,0-9.4-1.8-13-5.4c-0.4-0.5-0.9-0.9-1.4-1.3c0,0-0.1,0-0.1,0c-0.2,0.4-0.1,0.8-0.1,1.1
		c0,6.1,0,12.2,0,18.2c0,1-0.3,1.2-1.2,1.2c-5.1,0-10.2,0-15.4,0c-0.8,0-1.2-0.1-1.2-1.1c0-20.9,0-41.8,0-62.7
		c0-0.9,0.3-1.1,1.1-1.1c5.2,0,10.4,0,15.6,0c0.9,0,1.1,0.3,1,1.1C367.1,35.8,367.2,37.5,367.2,39.5z M387.1,58.4
		c0-1.4-0.1-2.4-0.3-3.4c-0.8-4.2-4-7.4-8-8.2c-4-0.8-7.9,1-10.2,4.6c-2.6,4.1-2.4,10.1,0.5,14c3.6,4.9,10.5,5.4,14.8,1.1
		C386.3,64.1,387.1,61.2,387.1,58.4z"/>
	<path class="st2" d="M428.5,154.8c-1.6,2-3.2,3.5-5,4.8c-5.6,3.9-11.6,3.9-17.6,1.5c-5.7-2.3-8.2-7.2-9.1-13
		c-0.2-1.5-0.3-3-0.3-4.5c0-10.3,0-20.6,0-30.8c0-1.1,0.3-1.3,1.3-1.3c5,0.1,10.1,0.1,15.1,0c1.1,0,1.3,0.3,1.3,1.3
		c0,8.3,0,16.6,0,24.8c0,1.2,0,2.5,0.3,3.7c0.8,3.7,3.4,5.8,7,5.7c3.6-0.2,6.3-2.7,6.7-6.3c0.1-1.1,0.2-2.2,0.2-3.3
		c0-8.2,0-16.4,0-24.6c0-0.9,0.2-1.3,1.2-1.3c5.1,0.1,10.2,0,15.4,0c0.9,0,1.1,0.2,1.1,1.1c0,15.9,0,31.8,0,47.8
		c0,0.9-0.2,1.2-1.2,1.2c-5.1,0-10.2-0.1-15.4,0c-1,0-1.2-0.3-1.2-1.2C428.6,158.6,428.5,156.9,428.5,154.8z"/>
	<path class="st2" d="M485.6,39.7c1.1-1.2,1.9-2.1,2.8-3c6.5-6.4,18.1-6.5,24.2-0.2c3.5,3.6,4.8,8.2,4.8,13.1
		c0.1,10.8,0,21.7,0,32.5c0,0.9-0.3,1-1.1,1c-5.2,0-10.3,0-15.5,0c-0.9,0-1.1-0.3-1.1-1.1c0-8.5,0-17,0-25.4c0-1.4-0.1-2.8-0.5-4.1
		c-0.9-3-3.3-4.8-6.4-4.8c-3.1,0-5.7,1.7-6.7,4.5c-0.5,1.3-0.6,2.6-0.6,3.9c0,8.6,0,17.2,0,25.8c0,1-0.2,1.4-1.3,1.3
		c-5.1-0.1-10.2,0-15.2,0c-0.8,0-1.2-0.1-1.2-1.1c0-16,0-32,0-48c0-0.9,0.3-1,1.1-1c5.2,0,10.3,0,15.5,0c0.9,0,1.2,0.2,1.2,1.1
		C485.5,35.8,485.6,37.6,485.6,39.7z"/>
	<path class="st2" d="M362.3,110.4c9.3,0.2,17.3,3.6,22.8,11.5c9.3,13.3,4.1,31.8-11,38.2c-11.1,4.8-21.9,3.6-31.3-4.4
		c-6.4-5.4-9-12.6-8.4-21c0.8-12.7,10.8-22.3,23.1-24C359,110.5,360.6,110.5,362.3,110.4z M372.5,136.5c0-0.8-0.1-1.8-0.3-2.8
		c-1-4.6-5.1-8-9.7-8.3c-4.8-0.3-8.7,2.4-10.3,7c-0.6,1.7-0.8,3.5-0.6,5.3c0.5,6.7,6.9,11.4,13.3,9.7
		C369.5,146.2,372.5,142,372.5,136.5z"/>
	<path class="st2" d="M316,31.8c8.5,0.3,16.7,3.9,22.1,12.2c8.5,13,3.4,30.5-10.6,37.3c-11.5,5.5-25.6,3.2-33.7-5.6
		c-11.4-12.2-8.3-31.7,6.3-40C304.6,33,309.5,31.9,316,31.8z M304,58.2c-0.1,0.7,0.1,1.6,0.3,2.4c1.6,8,11.3,11.4,17.3,6
		c3-2.7,3.8-6.3,3.4-10.2c-0.6-6.1-6.6-10.5-12.5-9.3C307.3,48.1,304,52.4,304,58.2z"/>
	<path class="st2" d="M391.3,202.2c-5.3-9-13.8-12.9-24-13.2c-14.5-0.3-27.2,10.4-27.8,25.1c-0.3,7.6,2,14.4,7.7,19.5
		c9.1,8.4,19.8,9.9,31.1,5.6C393.2,233.4,399.4,215.8,391.3,202.2z M376.6,220.1c-1.7,4-5.1,6.2-9.4,6.2c-6.6,0-11.7-6.2-10.5-13
		c0.9-5.2,4.1-8.5,8.9-9.2c5.7-0.8,11.1,3.4,11.9,9.2C377.8,215.6,377.6,217.9,376.6,220.1z"/>
	<path class="st2" d="M443.6,62.9c-5.1,0-10.2,0-15.4,0c-1.4,0-1.4,0-0.9,1.3c1.7,4.6,5.7,7.1,11.1,6.8c3.8-0.2,7-1.8,9.7-4.4
		c0.6-0.5,0.9-0.5,1.5-0.1c2.7,2.3,5.4,4.5,8.1,6.7c0.7,0.6,0.8,1,0.2,1.7c-5,5.7-11.2,8.8-18.8,9.2c-5.5,0.3-10.8-0.5-15.8-3.1
		c-7.3-3.8-11.5-9.8-12.9-17.9c-1.1-6.5-0.3-12.7,2.8-18.5c4.8-8.9,14.2-13.7,24.4-12.8c6.8,0.6,12.7,3.1,17,8.6
		c3.5,4.4,5.1,9.5,5.6,15c0.2,2.1,0.3,4.2,0.2,6.3c0,0.8-0.3,1.1-1.2,1.1C454.1,62.9,448.8,62.9,443.6,62.9z M435.3,53.9
		c2.1,0,4.1,0,6.2,0c2.6,0,2.6,0,1.9-2.5c-1.1-3.8-4-6.2-7.6-6.4c-3.8-0.2-6.7,1.7-8.2,5.6c-0.3,0.7-0.5,1.5-0.7,2.3
		c-0.3,0.8-0.1,1.1,0.8,1.1C430.2,53.8,432.8,53.9,435.3,53.9z"/>
	<path class="st2" d="M479.6,220c0.9,4.7,4.6,7.8,9.7,8.1c4.4,0.3,8.1-1.3,11.3-4.4c0.6-0.6,1-0.6,1.6-0.1c2.7,2.3,5.4,4.6,8.2,6.8
		c0.6,0.5,0.6,0.8,0.1,1.4c-5.2,6.1-11.8,9.2-19.8,9.4c-5.6,0.2-11-0.8-15.9-3.6c-7.2-4.2-11.1-10.6-12.1-18.8
		c-0.7-5.9,0.1-11.6,3-16.8c5.1-9.2,13.1-13.4,23.6-13c12.1,0.4,20.8,8.1,23.1,20.2c0.6,3.2,0.7,6.3,0.7,9.5c0,1-0.4,1.2-1.3,1.2
		c-10.3,0-20.6,0-30.8,0C480.5,220,480,220,479.6,220z M487.8,210.9c2.6,0,5.2,0,7.8,0c0.7,0,0.9-0.1,0.8-0.9
		c-0.2-1.1-0.5-2.3-1-3.3c-1.4-2.8-3.6-4.5-6.8-4.8c-3.4-0.2-5.9,1.2-7.6,4c-0.7,1.1-1.1,2.3-1.4,3.5c-0.4,1.3-0.3,1.4,1,1.4
		C483,210.9,485.4,210.9,487.8,210.9z"/>
	<path class="st2" d="M308.5,162.7c-8-0.1-15.5-2.1-22.2-6.5c-0.9-0.6-1.2-1-0.5-2.1c1.9-2.8,3.6-5.7,5.3-8.6
		c0.4-0.7,0.7-0.9,1.5-0.4c4.6,2.9,9.6,4.7,15,5.2c1.2,0.1,2.4,0.1,3.6-0.2c1.1-0.3,2-0.9,2.1-2.2c0.1-1.3-0.6-2-1.6-2.5
		c-2.5-1.1-5-1.7-7.6-2.4c-2.9-0.8-5.8-1.7-8.5-3.1c-5.4-2.8-8.2-7-8-13.2c0.2-6,2.9-10.5,8.2-13.4c4.4-2.4,9.2-2.9,14.1-2.6
		c6.2,0.4,12.1,2,17.5,5.2c0.8,0.4,0.9,0.8,0.5,1.5c-1.7,3.1-3.4,6.2-5.1,9.4c-0.4,0.7-0.7,0.8-1.4,0.4c-4.1-2.1-8.4-3.8-13.1-4.2
		c-1.1-0.1-2.2,0-3.2,0.4c-0.9,0.3-1.5,0.9-1.6,1.9c-0.1,1,0.5,1.7,1.3,2.1c0.7,0.4,1.5,0.7,2.3,1c3.4,1.1,6.9,2.2,10.4,3.4
		c1.8,0.6,3.5,1.4,5.1,2.3c5.4,3.3,7.6,8.1,6.7,14.3c-1.1,7.5-6.1,12.4-14.2,13.8C312.8,162.5,310.7,162.7,308.5,162.7z"/>
	<path class="st2" d="M458.6,138c0-3.9,0-7,0-10.1c0-2.2,0-2.2-2.3-2.2c-0.9,0-1.8,0-2.8,0c-0.7,0-0.9-0.2-0.9-0.9
		c0-4.2,0-8.3,0-12.5c0-0.7,0.2-0.9,0.9-0.9c1.3,0.1,2.6,0,4,0c0.9,0,1.2-0.2,1.1-1.1c-0.1-3.5,0-7,0-10.4c0-1,0.3-1.2,1.2-1.2
		c5.1,0,10.2,0.1,15.4,0c1.1,0,1.2,0.3,1.2,1.3c-0.1,3.4,0,6.9,0,10.3c0,0.9,0.2,1.2,1.1,1.1c3.2-0.1,6.4,0,9.6,0c0.8,0,1,0.2,1,1
		c0,4.1,0,8.2,0,12.2c0,0.8-0.3,1-1,1c-3.2,0-6.4,0-9.6,0c-0.8,0-1.1,0.2-1.1,1.1c0,5.4,0,10.8,0,16.2c0,3.1,1.5,4.5,4.6,4.6
		c2.1,0.1,4.1-0.5,6-1.3c0.7-0.3,0.9-0.2,0.9,0.6c0,4,0,8.1,0,12.1c0,0.5-0.1,0.9-0.7,1.1c-6.7,3.1-13.6,3.6-20.5,0.9
		c-5.1-2-7.3-6.1-7.9-11.4C458.4,145.5,458.8,141.3,458.6,138z"/>
	<path class="st2" d="M313.8,189c8.5-0.1,15.5,3.1,20.5,10.1c0.6,0.9,0.6,1.3-0.3,1.9c-3.4,2.4-6.8,5-10.1,7.5
		c-0.6,0.5-0.9,0.5-1.5-0.2c-1.8-2.2-3.8-4-6.8-4.4c-3.8-0.6-6.9,0.5-9.2,3.5c-3.9,4.9-3.1,13,1.6,16.8c3,2.5,7.8,2.8,11.1,0.7
		c1.4-0.8,2.6-1.9,3.7-3.1c0.5-0.6,0.9-0.7,1.5-0.2c3.4,2.5,6.8,5,10.3,7.5c0.7,0.5,0.6,0.8,0.2,1.3c-5.2,7-12,10.6-20.8,10.7
		c-7.6,0.1-14.3-2.3-19.7-7.7c-9.4-9.4-10-25.1-1.4-35.3C298.4,191.9,305.5,189.1,313.8,189z"/>
	<path class="st3" d="M114.2,112.7c-4.2,4.4-6.9,9.6-7.9,15.6c-1.4,9.3,1,17.5,7.2,24.5c0.1,0.1,0.3,0.3,0.4,0.5
		c-3.3,3.7-6.7,7.4-10,11.1c-2.7,3-5.4,5.9-8.2,8.9c-3.4,3.6-6.8,7.2-10.1,10.9c-1.1,1.2-2.2,2.4-3.3,3.6c-2,2.3-4.1,4.4-6.2,6.6
		c-3.6-3.3-6.7-7.1-9.6-11c-8.4-11.7-13.7-24.8-15.4-39.1c-3-25.1,3.6-47.4,19.8-66.8c1.6-1.9,3.3-3.8,5.2-5.5
		c0.2,0.1,0.4,0.3,0.6,0.4c3.2,3.5,6.3,7,9.5,10.4c2.9,3.1,5.7,6.2,8.6,9.3c3.3,3.6,6.7,7.2,10,10.8c1.1,1.2,2.2,2.6,3.3,3.7
		C110.3,108.6,112,110.9,114.2,112.7z"/>
	<path class="st4" d="M76.2,194.3c2.1-2.2,4.2-4.4,6.2-6.6c1.1-1.2,2.2-2.4,3.3-3.6c3.3-3.7,6.7-7.2,10.1-10.9
		c2.7-2.9,5.5-5.9,8.2-8.9c3.3-3.7,6.7-7.4,10-11.1c2.6,2.3,5.3,4.4,8.5,5.9c5.7,2.5,11.6,3.2,17.6,1.9c0.3-0.1,0.6-0.1,0.9-0.1
		c0.1,0.4,0.2,0.8,0.3,1.3c4.9,17.6,9.8,35.1,14.6,52.7c-4.3,1.3-8.6,2.1-13,2.5c-4.6,0.5-9.2,0.6-13.8,0.3
		c-10.9-0.6-21.3-3.3-31.2-8.1c-7.6-3.6-14.4-8.4-20.6-14.1C77.1,195,76.5,194.8,76.2,194.3z"/>
	<path class="st5" d="M114.2,112.7c-2.2-1.8-3.9-4.1-5.9-6.1c-1.2-1.2-2.2-2.5-3.3-3.7c-3.3-3.6-6.7-7.2-10-10.8
		c-2.9-3.1-5.7-6.2-8.6-9.3c-3.2-3.5-6.3-7-9.5-10.4c-0.2-0.2-0.4-0.3-0.6-0.4c3.2-3.3,6.8-6.1,10.5-8.7
		c11.3-7.8,23.8-12.6,37.4-14.3c10.2-1.2,20.2-0.6,30.2,1.9c0.5,0.1,1.1,0,1.6,0.4c-0.1,0.4-0.1,0.7-0.2,1.1
		c-1.5,5.5-3.1,11-4.6,16.4c-3.4,12.2-6.7,24.3-10.1,36.5c-2.7-0.5-5.3-0.9-8.1-0.7C125.7,104.9,119.4,107.6,114.2,112.7z"/>
	<path class="st6" d="M141.1,105.2c3.4-12.2,6.7-24.3,10.1-36.5c1.5-5.5,3.1-11,4.6-16.4c0.1-0.3,0.1-0.7,0.2-1.1
		c5.6,1.4,11,3.6,16.1,6.4c5.6,3,10.5,6.9,15.5,10.8c3.5,2.8,6.6,5.9,8.8,9.9c9,16.4-0.5,37.4-18.8,41c-9.7,1.9-18.1-0.9-25.2-7.8
		c-2.8-2.7-6.1-4.5-9.7-5.7C142,105.6,141.6,105.4,141.1,105.2z"/>
	<path class="st7" d="M156.1,214.8c-4.9-17.6-9.8-35.1-14.6-52.7c-0.1-0.4-0.2-0.8-0.3-1.3c3.8-1.2,7.3-2.9,10.3-5.4
		c1.7-1.4,3.2-3.1,5.1-4.4c5.5-3.8,11.7-5.5,18.3-4.7c10.5,1.2,18.1,6.9,22.5,16.5c2,4.4,2.7,9,2.3,13.7c-0.7,8.3-4.5,15-11,20.2
		c-4.1,3.3-8.2,6.6-12.7,9.4c-5.9,3.7-12.2,6.4-18.9,8.4C156.7,214.7,156.4,214.7,156.1,214.8z"/>
</g>
</svg>
